<svg width="120" height="120" viewBox="0 0 120 120" fill="none" xmlns="http://www.w3.org/2000/svg">
<path d="M78.8693 54.8827C78.0968 55.3978 76.938 55.784 75.5217 55.784C73.3328 55.784 71.2728 55.5265 69.2127 54.8827C68.6976 54.754 68.3114 54.6252 68.0539 54.6252C67.6676 54.6252 67.5388 54.8827 67.5388 55.3978V56.6853C67.5388 57.0716 67.6676 57.3291 67.7964 57.5866C67.9251 57.7154 68.1826 57.9729 68.5689 58.1016C70.629 59.0029 72.9466 59.3892 75.5217 59.3892C78.2256 59.3892 80.2856 58.7454 81.9595 57.4579C83.6333 56.1703 84.4058 54.4965 84.4058 52.3076C84.4058 50.7626 84.0196 49.6038 83.247 48.5737C82.4745 47.6724 81.1869 46.7711 79.3844 46.1274L75.7792 44.7111C74.3629 44.196 73.3328 43.681 72.9466 43.166C72.4316 42.651 72.174 42.1359 72.174 41.2347C72.174 39.3033 73.5904 38.2733 76.5517 38.2733C78.2256 38.2733 79.8994 38.5308 81.4444 39.0458C81.9595 39.1746 82.3457 39.3033 82.4745 39.3033C82.8608 39.3033 83.1183 39.0458 83.1183 38.5308V37.2432C83.1183 36.857 82.9895 36.5995 82.8608 36.3419C82.732 36.0844 82.4745 35.9557 82.0882 35.8269C80.1569 35.1831 78.2256 34.7969 76.2942 34.7969C73.8479 34.7969 71.7878 35.4407 70.2427 36.5995C68.6976 37.7583 67.9251 39.4321 67.9251 41.3634C67.9251 44.3248 69.5989 46.5136 72.9466 47.8012L76.8092 49.2175C78.0968 49.7325 78.8693 50.1188 79.3844 50.6338C79.8994 51.1488 80.0281 51.6638 80.0281 52.4364C80.0281 53.4664 79.6419 54.3677 78.8693 54.8827Z" fill="url(#paint0_linear_85_92)"/>
<path d="M58.6547 36.3427V53.4672C56.4659 54.8835 54.277 55.656 52.0882 55.656C50.6719 55.656 49.6418 55.2698 48.998 54.4972C48.3543 53.7247 48.0967 52.5659 48.0967 50.8921V36.3427C48.0967 35.6989 47.8392 35.4414 47.1955 35.4414H44.4916C43.8478 35.4414 43.5903 35.6989 43.5903 36.3427V52.3084C43.5903 54.4972 44.1053 56.2998 45.2641 57.4586C46.4229 58.6174 48.0967 59.2612 50.2856 59.2612C53.247 59.2612 56.2083 58.2311 59.041 56.171L59.2985 57.7161C59.2985 58.1024 59.4272 58.2311 59.6847 58.3599C59.8135 58.4887 60.071 58.4886 60.4573 58.4886H62.3886C63.0324 58.4886 63.2899 58.2311 63.2899 57.5874V36.3427C63.2899 35.6989 63.0324 35.4414 62.3886 35.4414H59.6847C58.9122 35.4414 58.6547 35.8277 58.6547 36.3427Z" fill="url(#paint1_linear_85_92)"/>
<path d="M34.1912 58.6167H36.895C37.5388 58.6167 37.7963 58.3591 37.7963 57.7154V41.6209C37.7963 39.4321 37.2813 37.7583 36.1225 36.5995C34.9637 35.4407 33.4186 34.7969 31.2298 34.7969C28.2684 34.7969 25.1783 35.8269 22.2169 38.0158C21.1868 35.8269 19.2555 34.7969 16.4229 34.7969C13.5903 34.7969 10.7576 35.8269 7.92502 37.7583L7.66751 36.3419C7.66751 35.9557 7.53875 35.8269 7.28124 35.6982C7.15249 35.5694 6.89498 35.5694 6.63746 35.5694H4.57738C3.9336 35.5694 3.67609 35.8269 3.67609 36.4707V57.8441C3.67609 58.4879 3.9336 58.7454 4.57738 58.7454H7.28124C7.92502 58.7454 8.18253 58.4879 8.18253 57.8441V40.4621C10.3714 39.1746 12.5602 38.402 14.8778 38.402C16.1654 38.402 17.0667 38.7883 17.5817 39.5608C18.0967 40.3334 18.483 41.3634 18.483 42.9085V57.7154C18.483 58.3591 18.7405 58.6167 19.3843 58.6167H22.0881C22.7319 58.6167 22.9894 58.3591 22.9894 57.7154V40.4621C25.307 39.0458 27.4959 38.402 29.6847 38.402C30.9723 38.402 31.8736 38.7883 32.3886 39.5608C32.9036 40.3334 33.2899 41.3634 33.2899 42.9085V57.7154C33.2899 58.3591 33.5474 58.6167 34.1912 58.6167Z" fill="url(#paint2_linear_85_92)"/>
<path d="M104.363 75.7415C90.3286 81.6642 75.0067 84.6256 61.1011 84.6256C40.5002 84.6256 20.5431 78.9604 4.44863 69.5612C4.19112 69.4325 3.93361 69.3037 3.6761 69.3037C2.77481 69.3037 2.25979 70.3338 3.16108 71.235C18.0967 84.7544 37.9251 92.866 59.8135 92.866C75.5217 92.866 93.6762 87.9733 106.166 78.7029C108.354 77.1578 106.552 74.8402 104.363 75.7415Z" fill="url(#paint3_linear_85_92)"/>
<path d="M103.977 40.591C105.135 39.3035 106.938 38.6597 109.513 38.6597C110.801 38.6597 112.088 38.7884 113.247 39.1747C113.633 39.3035 113.762 39.3035 114.02 39.3035C114.406 39.3035 114.663 39.046 114.663 38.4022V37.1146C114.663 36.7284 114.535 36.3421 114.406 36.2133C114.277 36.0846 114.02 35.8271 113.762 35.6983C112.088 35.312 110.414 34.9258 108.869 34.9258C105.264 34.9258 102.56 35.9558 100.5 38.1447C98.5689 40.2048 97.5389 43.2949 97.5389 47.1576C97.5389 51.0202 98.4402 53.9816 100.372 56.0417C102.303 58.1018 105.007 59.1318 108.612 59.1318C110.543 59.1318 112.346 58.8743 113.762 58.2305C114.148 58.1018 114.406 57.973 114.535 57.7155C114.663 57.5868 114.663 57.2005 114.663 56.8142V55.5267C114.663 54.8829 114.406 54.6254 114.02 54.6254C113.891 54.6254 113.633 54.6254 113.376 54.7541C111.96 55.1404 110.543 55.3979 109.256 55.3979C106.809 55.3979 105.007 54.7541 103.848 53.4666C102.689 52.179 102.174 50.1189 102.174 47.4151V46.7713C102.303 43.9387 102.818 41.8786 103.977 40.591Z" fill="url(#paint4_linear_85_92)"/>
<path d="M109.771 87.8449C116.466 82.1796 118.269 70.4629 116.852 68.6603C116.208 67.8878 113.118 67.1152 109.256 67.1152C105.135 67.1152 100.243 68.0165 96.5089 70.5916C95.3501 71.3642 95.6076 72.3942 96.7664 72.2655C100.758 71.7504 109.771 70.7204 111.445 72.7805C112.99 74.8406 109.642 83.3384 108.097 87.0723C107.711 88.2311 108.612 88.6174 109.771 87.8449Z" fill="url(#paint5_linear_85_92)"/>
<path d="M91.8737 35.4414H89.1698C88.526 35.4414 88.2685 35.6989 88.2685 36.3427V57.7161C88.2685 58.3599 88.526 58.6174 89.1698 58.6174H91.8737C92.5174 58.6174 92.7749 58.3599 92.7749 57.7161V36.3427C92.7749 35.8277 92.5174 35.4414 91.8737 35.4414Z" fill="url(#paint6_linear_85_92)"/>
<path d="M92.6462 26.6856C92.1312 26.1706 91.3586 25.9131 90.4573 25.9131C89.5561 25.9131 88.9123 26.1706 88.3973 26.6856C87.8822 27.2006 87.6247 27.8444 87.6247 28.617C87.6247 29.3895 87.8822 30.162 88.3973 30.5483C88.9123 31.0633 89.5561 31.3208 90.4573 31.3208C91.3586 31.3208 92.0024 31.0633 92.5174 30.5483C93.0325 30.0333 93.29 29.3895 93.29 28.617C93.29 27.8444 93.1612 27.0719 92.6462 26.6856Z" fill="url(#paint7_linear_85_92)"/>
<defs>
<linearGradient id="paint0_linear_85_92" x1="27.4104" y1="95.5554" x2="100.528" y2="22.438" gradientUnits="userSpaceOnUse">
<stop stop-color="#0C6CB3"/>
<stop offset="0.29" stop-color="#1E84C4"/>
<stop offset="0.89" stop-color="#4CC0EF"/>
<stop offset="1" stop-color="#4CC0EF"/>
</linearGradient>
<linearGradient id="paint1_linear_85_92" x1="16.1156" y1="84.2616" x2="89.233" y2="11.1441" gradientUnits="userSpaceOnUse">
<stop stop-color="#0C6CB3"/>
<stop offset="0.29" stop-color="#1E84C4"/>
<stop offset="0.89" stop-color="#4CC0EF"/>
<stop offset="1" stop-color="#4CC0EF"/>
</linearGradient>
<linearGradient id="paint2_linear_85_92" x1="-0.191953" y1="67.9537" x2="72.9255" y2="-5.16377" gradientUnits="userSpaceOnUse">
<stop stop-color="#0C6CB3"/>
<stop offset="0.29" stop-color="#1E84C4"/>
<stop offset="0.89" stop-color="#4CC0EF"/>
<stop offset="1" stop-color="#4CC0EF"/>
</linearGradient>
<linearGradient id="paint3_linear_85_92" x1="30.3168" y1="98.4627" x2="103.434" y2="25.3453" gradientUnits="userSpaceOnUse">
<stop stop-color="#0C6CB3"/>
<stop offset="0.29" stop-color="#1E84C4"/>
<stop offset="0.89" stop-color="#4CC0EF"/>
<stop offset="1" stop-color="#4CC0EF"/>
</linearGradient>
<linearGradient id="paint4_linear_85_92" x1="43.6493" y1="111.795" x2="116.767" y2="38.6776" gradientUnits="userSpaceOnUse">
<stop stop-color="#0C6CB3"/>
<stop offset="0.29" stop-color="#1E84C4"/>
<stop offset="0.89" stop-color="#4CC0EF"/>
<stop offset="1" stop-color="#4CC0EF"/>
</linearGradient>
<linearGradient id="paint5_linear_85_92" x1="57.0764" y1="125.222" x2="130.194" y2="52.105" gradientUnits="userSpaceOnUse">
<stop stop-color="#0C6CB3"/>
<stop offset="0.29" stop-color="#1E84C4"/>
<stop offset="0.89" stop-color="#4CC0EF"/>
<stop offset="1" stop-color="#4CC0EF"/>
</linearGradient>
<linearGradient id="paint6_linear_85_92" x1="34.6976" y1="102.844" x2="107.815" y2="29.7262" gradientUnits="userSpaceOnUse">
<stop stop-color="#0C6CB3"/>
<stop offset="0.29" stop-color="#1E84C4"/>
<stop offset="0.89" stop-color="#4CC0EF"/>
<stop offset="1" stop-color="#4CC0EF"/>
</linearGradient>
<linearGradient id="paint7_linear_85_92" x1="25.4877" y1="93.6333" x2="98.6051" y2="20.5158" gradientUnits="userSpaceOnUse">
<stop stop-color="#0C6CB3"/>
<stop offset="0.29" stop-color="#1E84C4"/>
<stop offset="0.89" stop-color="#4CC0EF"/>
<stop offset="1" stop-color="#4CC0EF"/>
</linearGradient>
</defs>
</svg>
