<svg width="120" height="120" viewBox="0 0 120 120" fill="none" xmlns="http://www.w3.org/2000/svg">
<g clip-path="url(#clip0_85_102)">
<path d="M93.3044 0H26.6956C11.952 0 0 11.952 0 26.6956V93.3044C0 108.048 11.952 120 26.6956 120H93.3044C108.048 120 120 108.048 120 93.3044V26.6956C120 11.952 108.048 0 93.3044 0Z" fill="url(#paint0_linear_85_102)"/>
<path d="M56.3357 105.056C52.7558 103.776 51.9892 102.037 50.5193 91.8388C48.8126 79.9879 48.4398 72.6523 49.4291 70.329C50.7397 67.2485 54.3008 65.4996 59.2756 65.4808C64.2152 65.4597 67.8068 67.225 69.122 70.329C70.1161 72.6476 69.7433 79.9879 68.0342 91.8388C66.8738 100.119 66.2361 102.213 64.6349 103.619C62.4358 105.568 59.3154 106.107 56.3545 105.059L56.3357 105.056ZM41.0456 92.8961C28.6836 86.8148 20.7643 76.5276 17.8854 62.841C17.1656 59.308 17.0437 50.8846 17.7236 47.64C19.5241 38.9399 22.9657 32.1365 28.6836 26.1208C36.9242 17.4325 47.5255 12.8398 59.3248 12.8398C71.0046 12.8398 81.5637 17.3481 89.605 25.7762C95.7238 32.1365 99.1631 38.8673 100.924 47.7361C101.524 50.6877 101.524 58.736 100.964 62.0556C99.0958 72.6124 93.3098 82.0743 84.7638 88.5473C81.7161 90.8424 74.2844 94.8513 73.0841 94.8513C72.6433 94.8513 72.6034 94.3965 72.8051 92.5515C73.1638 89.5905 73.5248 88.9763 75.2034 88.2706C77.8854 87.1524 82.4452 83.903 85.2444 81.0944C90.1256 76.216 93.5946 70.1068 95.2831 63.4154C96.324 59.2963 96.2044 50.1368 95.0487 45.8958C91.3984 32.4038 80.4032 21.9244 66.9253 19.1252C63.0032 18.3234 55.8833 18.3234 51.9212 19.1252C38.2816 21.9244 27.0027 32.9242 23.5541 46.7632C22.6351 50.5142 22.6351 59.6831 23.5541 63.4435C25.8352 72.6031 31.7595 81.003 39.5147 86.0036C40.8328 86.8841 42.2098 87.6729 43.6362 88.3644C45.3147 89.0841 45.6758 89.6843 45.9946 92.6429C46.1939 94.4434 46.154 94.9639 45.7156 94.9639C45.4343 94.9639 43.3947 94.0847 41.2355 93.0438L41.0456 92.8961ZM41.205 76.6284C37.0437 73.3087 33.3654 67.4196 31.8439 61.6454C30.9249 58.1569 30.9249 51.5246 31.8837 48.0479C34.4039 38.6563 41.3246 31.3746 50.9249 27.9541C54.207 26.796 61.4746 26.5475 65.5234 27.4266C79.442 30.5212 89.3236 44.461 87.413 58.2882C86.6534 63.8608 84.7333 68.4371 81.334 72.6875C79.653 74.8349 75.5738 78.4406 74.8541 78.4406C74.7345 78.4406 74.6196 77.0808 74.6196 75.4234V72.4085L76.7014 69.9281C84.5411 60.5365 83.9808 47.422 75.4214 38.8087C72.1018 35.4585 68.2616 33.4892 63.3009 32.582C60.1008 31.9888 59.4209 31.9888 56.0614 32.5421C50.96 33.3744 47.0097 35.3554 43.5002 38.8204C34.8845 47.3235 34.3242 60.5201 42.1662 69.9187L44.2293 72.4085V75.4562C44.2293 77.1371 44.0957 78.5039 43.9315 78.5039C43.7674 78.5039 42.6117 77.7045 41.3715 76.7034L41.205 76.6284ZM55.0838 60.2974C51.525 58.6399 49.605 55.5171 49.5651 51.4449C49.5651 47.7853 51.6047 44.5923 55.1237 42.7238C57.3649 41.5516 61.3246 41.5516 63.5635 42.7238C66.0493 44.0661 67.9144 46.324 68.7633 49.0185C71.0843 56.9074 62.7242 63.8186 55.1659 60.288L55.0838 60.2974Z" fill="white"/>
<path d="M59.9555 61.8424C65.4647 61.8424 69.9309 57.3762 69.9309 51.867C69.9309 46.3577 65.4647 41.8916 59.9555 41.8916C54.4462 41.8916 49.9801 46.3577 49.9801 51.867C49.9801 57.3762 54.4462 61.8424 59.9555 61.8424Z" fill="white"/>
<path d="M60.9214 65.709C62.0526 65.8382 63.1704 66.0656 64.2621 66.3889C65.4564 66.7693 66.5843 67.3332 67.6052 68.0604C68.4867 68.7004 69.1267 69.3639 69.5253 70.1704C69.9238 70.9768 70.1254 71.938 70.245 73.5111C70.3247 75.0865 70.3247 77.2621 69.966 81.3508C69.6073 85.4394 68.8853 91.3824 68.3249 95.2014C67.7646 99.0204 67.3661 100.722 66.8456 101.963C66.4977 102.934 65.907 103.801 65.1299 104.48C64.3527 105.159 63.4149 105.628 62.4054 105.843C61.6434 106.003 60.8648 106.07 60.0868 106.042C59.308 106.067 58.529 106 57.7658 105.843C56.8468 105.641 55.6559 105.282 54.765 104.563C53.846 103.843 53.2458 102.802 52.7652 101.442C52.2846 100.082 51.9259 98.4414 51.4453 95.1616C50.9647 91.8818 50.3247 87.0031 49.9262 83.2825C49.5276 79.562 49.3659 77.0019 49.333 75.2811C49.3002 73.5603 49.3729 72.7023 49.5675 71.8818C49.7539 71.0976 50.0786 70.3529 50.5263 69.6827C50.9703 69.0548 51.5107 68.5009 52.1276 68.0416C52.6934 67.6053 53.327 67.2648 54.0031 67.0336C54.8276 66.7152 55.6799 66.4743 56.5491 66.3138C57.5876 66.1146 58.788 65.9153 59.4045 65.8332C59.8342 65.7417 60.2783 65.7417 60.708 65.8332L60.9214 65.709Z" fill="white"/>
</g>
<defs>
<linearGradient id="paint0_linear_85_102" x1="60.5158" y1="121.519" x2="59.4983" y2="-0.00468451" gradientUnits="userSpaceOnUse">
<stop stop-color="#822CBE"/>
<stop offset="1" stop-color="#D772FB"/>
</linearGradient>
<clipPath id="clip0_85_102">
<rect width="120" height="120" fill="white"/>
</clipPath>
</defs>
</svg>
