<svg width="120" height="120" viewBox="0 0 120 120" fill="none" xmlns="http://www.w3.org/2000/svg">
<rect width="120" height="120" rx="32" fill="url(#paint0_linear_84_53)"/>
<path d="M46.8318 85.2193V47.7193C46.8318 46.3131 47.6131 45.4537 49.1756 45.1412L81.5193 38.5787C83.2381 38.2662 84.1756 39.0475 84.3318 40.9225V69.5162C84.3318 71.86 80.8162 73.4225 73.7849 74.2037C60.4256 76.3131 62.5349 98.8131 80.8162 92.7193C87.8474 90.1412 89.0193 83.3443 89.0193 76.5475V21.7037C89.0193 21.7037 89.0193 17.0162 85.0349 18.1881L45.1912 26.3912C45.1912 26.3912 42.1443 26.86 42.1443 30.61V78.1881C42.1443 80.5318 38.6287 82.0943 31.5974 82.8756C18.2381 84.985 20.3474 107.485 38.6287 101.391C45.6599 98.8131 46.8318 92.0162 46.8318 85.2193Z" fill="white"/>
<defs>
<linearGradient id="paint0_linear_84_53" x1="60" y1="0" x2="60" y2="120" gradientUnits="userSpaceOnUse">
<stop stop-color="#FE586E"/>
<stop offset="1" stop-color="#FF2641"/>
</linearGradient>
</defs>
</svg>
