<svg width="120" height="120" viewBox="0 0 120 120" fill="none" xmlns="http://www.w3.org/2000/svg">
<g clip-path="url(#clip0_85_55)">
<path fill-rule="evenodd" clip-rule="evenodd" d="M60 0C93.1371 0 120 26.8629 120 60C120 93.1371 93.1371 120 60 120C26.8629 120 0 93.1371 0 60C0 26.8629 26.8629 0 60 0Z" fill="#5865F2"/>
<path d="M84.5934 37.6457C79.9366 35.5158 75.0211 34.0044 69.9722 33.1499C69.2842 34.3856 68.661 35.6563 68.1051 36.9568C65.4196 36.5518 62.7075 36.348 59.9915 36.347C57.28 36.347 54.555 36.553 51.8768 36.9517C51.3297 35.6605 50.6946 34.3801 50.005 33.1494C44.9559 34.012 40.04 35.5264 35.3807 37.6546C26.1269 51.3439 23.6191 64.6914 24.873 77.8492C30.2917 81.8514 36.3562 84.8953 42.8032 86.8487C44.249 84.8968 45.5442 82.8191 46.6436 80.657C44.5457 79.8752 42.5211 78.9091 40.5937 77.77C41.1011 77.4022 41.5971 77.0232 42.0761 76.6553C47.6805 79.2873 53.804 80.6603 59.9995 80.6603C66.1954 80.6603 72.3189 79.2873 77.9233 76.6548C78.4082 77.0507 78.9044 77.4297 79.4057 77.7695C77.4746 78.9109 75.4465 79.8797 73.345 80.6645C74.4484 82.8313 75.7332 84.9009 77.1855 86.8511C83.6384 84.9039 89.7078 81.8602 95.1276 77.8532L95.1262 77.8546C96.5976 62.5961 92.6128 49.3712 84.5934 37.6457ZM48.2294 69.7572C44.7354 69.7572 41.8483 66.5861 41.8483 62.6851C41.8483 58.7839 44.6348 55.585 48.2184 55.585C51.8018 55.585 54.6663 58.7839 54.6049 62.6851C54.5437 66.5861 51.7908 69.7572 48.2294 69.7572ZM71.7698 69.7572C68.2699 69.7572 65.3943 66.5861 65.3943 62.6851C65.3943 58.7839 68.1808 55.585 71.7698 55.585C75.3588 55.585 78.2011 58.7839 78.1397 62.6851C78.0785 66.5861 75.3309 69.7572 71.7698 69.7572Z" fill="white"/>
</g>
<defs>
<clipPath id="clip0_85_55">
<rect width="120" height="120" fill="white"/>
</clipPath>
</defs>
</svg>
