<svg width="120" height="120" viewBox="0 0 120 120" fill="none" xmlns="http://www.w3.org/2000/svg">
<g clip-path="url(#clip0_85_86)">
<path fill-rule="evenodd" clip-rule="evenodd" d="M60.0002 120C26.9118 120 -0.000366211 93.0922 -0.000366211 59.9996C-0.000366211 26.9069 26.9028 -0.000976562 60.0002 -0.000976562C93.0882 -0.000976562 120.001 26.9019 120.001 59.9996C120.001 93.0969 93.0929 120 60.0002 120ZM110.601 68.2069C108.848 67.6442 94.7294 63.4516 78.6802 66.0235C85.3834 84.4422 88.1011 99.4441 88.6418 102.564C100.124 94.7868 108.329 82.478 110.602 68.2069H110.601H110.601ZM80.0176 107.251C79.2444 102.749 76.2909 87.0914 69.0992 68.3933C68.9793 68.4401 68.8666 68.4621 68.7698 68.5132C39.8513 78.5918 29.4631 98.6341 28.5545 100.507C37.2492 107.279 48.176 111.339 60.0106 111.339C67.1149 111.339 73.8876 109.884 80.0281 107.259L80.0169 107.251H80.0176ZM21.9129 94.3353C23.0843 92.3398 37.147 69.0687 63.5609 60.5187C64.2208 60.3102 64.8962 60.1 65.5784 59.9121C64.2892 57.0022 62.8856 54.079 61.4305 51.2195C35.8625 58.8843 11.0167 58.5542 8.76672 58.5322C8.7426 59.051 8.7426 59.5668 8.7426 60.1004C8.7426 73.2461 13.7387 85.2691 21.9125 94.3443V94.335L21.9129 94.3353ZM9.84564 49.5693C12.1424 49.5912 33.2604 49.6863 57.2383 43.3351C48.7584 28.2385 39.5903 15.542 38.2324 13.6884C23.8864 20.4582 13.1522 33.6839 9.85248 49.5696H9.84528L9.84564 49.5693ZM48.0014 10.2468C49.4104 12.1426 58.7333 24.8275 67.1267 40.246C85.36 33.4272 93.0687 23.0383 93.9857 21.7272C84.9388 13.688 73.0311 8.81183 60.0023 8.81183C55.8785 8.83379 51.8415 9.32987 48.0039 10.2425L48.0017 10.2468H48.001H48.0014ZM99.6837 27.682C98.603 29.1346 89.999 40.1545 71.0623 47.8881C72.2535 50.3238 73.4073 52.8089 74.4596 55.3206C74.8336 56.2127 75.2102 57.0746 75.5623 57.9666C92.6234 55.8387 109.568 59.258 111.257 59.6079C111.137 47.518 106.801 36.4033 99.6769 27.6867L99.6834 27.6823L99.6841 27.6816L99.6837 27.682Z" fill="#EA4C89"/>
</g>
<defs>
<clipPath id="clip0_85_86">
<rect width="120" height="120" fill="white"/>
</clipPath>
</defs>
</svg>
