<svg width="120" height="120" viewBox="0 0 120 120" fill="none" xmlns="http://www.w3.org/2000/svg">
<g clip-path="url(#clip0_85_88)">
<path d="M120 60C120 26.8621 93.1379 0 60 0C26.8621 0 0 26.8621 0 60C0 88.1399 19.3721 111.749 45.5057 118.234V78.3348H33.1332V60H45.5057V52.0998C45.5057 31.6762 54.7473 22.2106 74.7961 22.2106C78.5988 22.2106 85.1576 22.958 87.8405 23.7029V40.3238C86.4236 40.1752 83.9646 40.0998 80.9092 40.0998C71.0711 40.0998 67.2684 43.8271 67.2684 53.5167V60H86.8668L83.5002 78.3348H67.2684V119.561C96.9784 115.973 120 90.6766 120 60Z" fill="#0866FF"/>
<path d="M83.5002 78.3351L86.8668 60.0003H67.2684V53.517C67.2684 43.8274 71.0711 40.1001 80.9092 40.1001C83.9646 40.1001 86.4236 40.1756 87.8405 40.3241V23.7033C85.1576 22.9583 78.5988 22.2109 74.7961 22.2109C54.7474 22.2109 45.5057 31.6789 45.5057 52.1001V60.0003H33.1332V78.3351H45.5057V118.235C50.1477 119.385 55.002 120 60 120C62.4613 120 64.8849 119.849 67.2684 119.562V78.3351H83.5002Z" fill="white"/>
</g>
<defs>
<clipPath id="clip0_85_88">
<rect width="120" height="120" fill="white"/>
</clipPath>
</defs>
</svg>
