<svg width="120" height="120" viewBox="0 0 120 120" fill="none" xmlns="http://www.w3.org/2000/svg">
<g clip-path="url(#clip0_85_84)">
<path fill-rule="evenodd" clip-rule="evenodd" d="M59.9978 1.49486C26.8674 1.49486 0 28.3578 0 61.4924C0 88.0034 17.1896 110.486 41.0299 118.423C44.0306 118.979 45.1335 117.119 45.1335 115.533C45.1335 114.102 45.0737 109.376 45.0493 104.367C28.3558 107.997 24.8368 97.2847 24.8368 97.2847C22.1083 90.3485 18.1751 88.5039 18.1751 88.5039C12.7316 84.7765 18.5893 84.8585 18.5893 84.8585C24.6129 85.2794 27.7843 91.0374 27.7843 91.0374C33.1393 100.21 41.8249 97.5549 45.2464 96.0245C45.7867 92.1468 47.337 89.4982 49.0554 87.9989C35.7279 86.4864 21.7185 81.3397 21.7185 58.3477C21.7185 51.799 24.066 46.4442 27.8994 42.2452C27.2751 40.7305 25.2199 34.6315 28.4775 26.3688C28.4775 26.3688 33.5156 24.7544 44.9829 32.5188C49.7664 31.1922 54.8976 30.5234 59.9934 30.5013C65.0934 30.5234 70.2336 31.19 75.0238 32.5188C86.4756 24.7589 91.5092 26.3688 91.5092 26.3688C94.7713 34.6338 92.7251 40.7371 92.1006 42.2454C95.9473 46.4442 98.2749 51.799 98.2749 58.3477C98.2749 81.3927 84.2344 86.4595 70.878 87.9457C73.0307 89.8059 74.9529 93.4578 74.9529 99.0519C74.9529 107.075 74.8843 113.542 74.8843 115.515C74.8843 117.112 75.9651 118.979 79.0078 118.394C102.835 110.453 120.002 87.9676 120.002 61.4724C120.002 28.342 93.1393 1.47461 60.0022 1.47461L59.9979 1.49467L59.9978 1.49486Z" fill="black"/>
</g>
<defs>
<clipPath id="clip0_85_84">
<rect width="120" height="120" fill="white"/>
</clipPath>
</defs>
</svg>
