<svg width="120" height="120" viewBox="0 0 120 120" fill="none" xmlns="http://www.w3.org/2000/svg">
<g clip-path="url(#clip0_84_31)">
<path d="M39.9991 60.0368C39.9797 48.9928 48.9183 40.0212 59.9602 40.0017C71.0041 39.9802 79.9774 48.915 79.999 59.9611C80.0203 71.007 71.0817 79.9767 60.0359 79.9983C48.994 80.0194 40.0205 71.0829 39.9991 60.0368ZM29.1926 60.0581C29.2256 77.0742 43.0456 90.8379 60.0574 90.8049C77.0712 90.7718 90.8426 76.9556 90.8095 59.9396C90.7765 42.9293 76.9547 29.1579 59.9388 29.191C42.9267 29.224 29.1595 43.046 29.1926 60.0581ZM84.7638 27.9274C84.7716 31.9008 88.0022 35.1183 91.976 35.1106C95.9513 35.1028 99.1688 31.8736 99.1629 27.9003C99.1552 23.9267 95.9243 20.7073 91.9488 20.715C87.9734 20.7228 84.7561 23.9536 84.7638 27.9274ZM35.8507 108.881C30.0012 108.626 26.8247 107.654 24.7078 106.839C21.9045 105.754 19.9041 104.454 17.7987 102.364C15.6973 100.267 14.3927 98.2721 13.2982 95.4743C12.476 93.3574 11.4865 90.1847 11.2123 84.3352C10.9149 78.0113 10.8469 76.114 10.8178 60.0933C10.7866 44.0764 10.845 42.1791 11.1211 35.8493C11.3716 30.0035 12.3497 26.8231 13.1623 24.7081C14.247 21.901 15.5438 19.9043 17.6374 17.7989C19.7349 15.6938 21.7294 14.393 24.5288 13.2985C26.644 12.4723 29.8165 11.4905 35.6642 11.2125C41.9918 10.9132 43.8872 10.849 59.9039 10.8178C75.9241 10.7869 77.8214 10.8431 84.1514 11.1213C89.9967 11.3759 93.1772 12.3441 95.2906 13.1625C98.0956 14.2472 100.096 15.54 102.199 17.6377C104.303 19.7353 105.607 21.7259 106.702 24.5311C107.528 26.6405 108.51 29.817 108.786 35.6625C109.087 41.9904 109.155 43.8879 109.184 59.9046C109.215 75.9253 109.157 77.8228 108.879 84.1486C108.624 89.9981 107.654 93.1767 106.838 95.2957C105.753 98.097 104.456 100.097 102.361 102.203C100.265 104.3 98.2706 105.609 95.4694 106.703C93.3579 107.528 90.1816 108.511 84.338 108.789C78.0103 109.087 76.1147 109.155 60.0924 109.184C44.0756 109.215 42.1805 109.155 35.8507 108.881ZM35.1509 0.415566C28.7667 0.716737 24.4064 1.73932 20.5959 3.23228C16.6516 4.77002 13.3081 6.83088 9.98204 10.1707C6.65181 13.5124 4.60665 16.8619 3.08063 20.8102C1.60337 24.6303 0.602118 28.9927 0.320165 35.3808C0.0403213 41.7806 -0.0238975 43.8218 0.00727439 60.1146C0.0384463 76.4056 0.110165 78.4507 0.415321 84.8522C0.720478 91.2345 1.73931 95.5931 3.23227 99.4053C4.77188 103.35 6.83063 106.692 10.1724 110.02C13.5122 113.348 16.8638 115.391 20.8139 116.919C24.63 118.395 28.9941 119.4 35.3803 119.68C41.7799 119.962 43.823 120.024 60.1118 119.993C76.4084 119.962 78.4516 119.89 84.8513 119.586C91.2354 119.281 95.5917 118.259 99.4059 116.769C103.35 115.226 106.694 113.171 110.02 109.829C113.346 106.489 115.391 103.138 116.918 99.1875C118.395 95.3714 119.4 91.0071 119.678 84.6249C119.958 78.2213 120.024 76.1761 119.993 59.8852C119.962 43.5924 119.888 41.5512 119.585 35.1532C119.281 28.7653 118.259 24.4085 116.768 20.5943C115.226 16.65 113.17 13.3102 109.83 9.98018C106.49 6.65393 103.138 4.60478 99.1882 3.08275C95.3702 1.60502 91.0078 0.598144 84.6218 0.32205C78.222 0.0384562 76.1789 -0.0238875 59.8842 0.00728433C43.5935 0.0384562 41.5505 0.1083 35.1509 0.415566Z" fill="url(#paint0_linear_84_31)"/>
</g>
<defs>
<linearGradient id="paint0_linear_84_31" x1="120" y1="-7.15257e-06" x2="4.29153e-06" y2="120" gradientUnits="userSpaceOnUse">
<stop stop-color="#E10090"/>
<stop offset="0.5" stop-color="#FE0403"/>
<stop offset="1" stop-color="#FFAB01"/>
</linearGradient>
<clipPath id="clip0_84_31">
<rect width="120" height="120" fill="white"/>
</clipPath>
</defs>
</svg>
