<svg width="121" height="120" viewBox="0 0 121 120" fill="none" xmlns="http://www.w3.org/2000/svg">
<g clip-path="url(#clip0_84_33)">
<path fill-rule="evenodd" clip-rule="evenodd" d="M27.2259 0H93.3333C100.548 0.0207088 107.461 2.89579 112.562 7.99716C117.663 13.0985 120.539 20.0115 120.559 27.2259V92.7839C120.536 99.9966 117.66 106.907 112.559 112.006C107.458 117.106 100.546 119.979 93.3333 120H27.2259C20.0132 119.979 13.1017 117.106 8.00061 112.006C2.89952 106.907 0.0232957 99.9966 0 92.7839V27.2259C0.0207088 20.0115 2.89579 13.0985 7.99716 7.99716C13.0985 2.89579 20.0115 0.0207088 27.2259 0Z" fill="#0A66C2"/>
<path fill-rule="evenodd" clip-rule="evenodd" d="M48.261 46.5147H63.4977V54.3636H63.7135C65.8425 50.5569 71.0228 46.5147 78.7638 46.5147C94.8443 46.5147 97.817 56.522 97.817 69.5414V97.0715H81.9328V72.6025C81.9328 67.0003 81.8151 59.7891 73.6718 59.7891C65.5286 59.7891 64.1354 65.8819 64.1354 72.2002V97.1205H48.261V46.5147ZM39.2446 31.1897C39.2446 32.8236 38.7601 34.4207 37.8523 35.7792C36.9446 37.1378 35.6544 38.1966 34.1449 38.8218C32.6354 39.4471 30.9744 39.6107 29.3719 39.2919C27.7695 38.9732 26.2975 38.1864 25.1422 37.0311C23.9869 35.8758 23.2001 34.4038 22.8813 32.8013C22.5626 31.1988 22.7262 29.5378 23.3514 28.0283C23.9767 26.5189 25.0355 25.2287 26.394 24.3209C27.7525 23.4132 29.3497 22.9287 30.9836 22.9287C33.1737 22.9313 35.2734 23.8025 36.8221 25.3512C38.3708 26.8998 39.242 28.9995 39.2446 31.1897ZM22.7422 46.5147H39.2446V97.0715H22.7422V46.5147Z" fill="white"/>
</g>
<defs>
<clipPath id="clip0_84_33">
<rect width="120.559" height="120" fill="white"/>
</clipPath>
</defs>
</svg>
