<svg width="120" height="120" viewBox="0 0 120 120" fill="none" xmlns="http://www.w3.org/2000/svg">
<g clip-path="url(#clip0_84_38)">
<path d="M60.0009 -7.65401e-05C26.8639 -7.65401e-05 0 26.8629 0 59.9999C0 93.1379 26.8639 120 60.0009 120C93.1415 120 120.003 93.1388 120.003 59.9999C120.003 26.8647 93.1415 0.00262353 60 0.00262353L60.0009 -0.000976562V-7.65401e-05ZM87.5173 86.538C86.4427 88.3002 84.1359 88.86 82.3728 87.7773C68.2856 79.1722 50.5507 77.2236 29.6647 81.9956C27.6523 82.4537 25.6461 81.1928 25.1871 79.1794C24.7263 77.1661 25.9827 75.1599 28.0006 74.7018C50.8567 69.4799 70.4619 71.7281 86.278 81.3935C88.0411 82.4753 88.6 84.7748 87.5173 86.538ZM94.8615 70.2008C93.5069 72.4013 90.6269 73.0961 88.4272 71.7425C72.2988 61.8288 47.7147 58.9577 28.6378 64.7493C26.1637 65.4964 23.5509 64.1022 22.8003 61.6326C22.0551 59.1584 23.4501 56.551 25.9197 55.7986C47.7102 49.187 74.8 52.3893 93.3215 63.771C95.5212 65.1255 96.216 68.0056 94.8624 70.2026V70.2017L94.8615 70.2008ZM95.4924 53.1885C76.1536 41.7025 44.2487 40.6467 25.7856 46.2503C22.821 47.1494 19.6853 45.4763 18.7871 42.5107C17.8888 39.5442 19.5611 36.4112 22.5276 35.5103C43.7222 29.076 78.9554 30.319 101.22 43.5367C103.892 45.1199 104.767 48.5633 103.183 51.2265C101.606 53.8933 98.1529 54.7726 95.4951 53.1885H95.4924Z" fill="#1ED760"/>
</g>
<defs>
<clipPath id="clip0_84_38">
<rect width="120.003" height="120" fill="white"/>
</clipPath>
</defs>
</svg>
