<svg width="120" height="120" viewBox="0 0 120 120" fill="none" xmlns="http://www.w3.org/2000/svg">
<g clip-path="url(#clip0_85_81)">
<path d="M60 120C93.1371 120 120 93.1371 120 60C120 26.8629 93.1371 0 60 0C26.8629 0 0 26.8629 0 60C0 93.1371 26.8629 120 60 120Z" fill="url(#paint0_linear_85_81)"/>
<path fill-rule="evenodd" clip-rule="evenodd" d="M27.1593 59.3671C44.6507 51.7452 56.3132 46.7225 62.1492 44.2944C78.8132 37.364 82.275 36.1593 84.532 36.1194C85.0289 36.1124 86.1375 36.2343 86.857 36.8179C87.464 37.31 87.6304 37.9757 87.7101 38.4421C87.7898 38.9108 87.8906 39.9725 87.8109 40.8046C86.9086 50.2921 83.0015 73.3147 81.014 83.9413C80.1726 88.439 78.5156 89.946 76.9125 90.0936C73.4296 90.4147 70.7835 87.7897 67.4085 85.5772C62.1281 82.1179 59.1445 79.9616 54.0187 76.5843C48.0937 72.6796 51.9351 70.535 55.3101 67.0288C56.1937 66.11 71.5453 52.146 71.8429 50.8804C71.8804 50.721 71.9156 50.1304 71.564 49.8186C71.2125 49.5069 70.6945 49.6147 70.3218 49.6991C69.7921 49.8186 61.357 55.3944 45.014 66.4265C42.6187 68.0718 40.4484 68.871 38.5054 68.8311C36.3632 68.7843 32.2429 67.6194 29.1796 66.6233C25.4226 65.4022 22.4367 64.7554 22.6968 62.6811C22.8304 61.6007 24.3187 60.4968 27.1593 59.3671Z" fill="white"/>
</g>
<defs>
<linearGradient id="paint0_linear_85_81" x1="60" y1="0.9" x2="60" y2="120" gradientUnits="userSpaceOnUse">
<stop stop-color="#2AABEE"/>
<stop offset="1" stop-color="#229ED9"/>
</linearGradient>
<clipPath id="clip0_85_81">
<rect width="120" height="120" fill="white"/>
</clipPath>
</defs>
</svg>
