<svg width="121" height="120" viewBox="0 0 121 120" fill="none" xmlns="http://www.w3.org/2000/svg">
<g clip-path="url(#clip0_85_60)">
<path d="M60.1349 0C26.8918 0 0 26.8942 0 59.9566C0 93.0191 26.8918 120 60.1349 120C93.1926 120 120.082 93.0191 120.082 59.9566C120.082 26.7159 93.1926 0 60.1349 0Z" fill="#252422"/>
<path d="M64.7857 73.4826C64.7857 78.8934 67.5181 80.765 71.864 80.765H78.0323V94.5181H66.3548C55.8335 94.5181 47.9953 89.1074 47.9953 76.161V55.4351H38.4451V44.2103C48.9616 41.4803 53.3615 32.4296 53.8658 24.5938H64.7857V42.3903H77.528V55.4351H64.7857V73.4826Z" fill="#FEFEFE"/>
</g>
<defs>
<clipPath id="clip0_85_60">
<rect width="120.082" height="120" fill="white"/>
</clipPath>
</defs>
</svg>
