<svg width="120" height="120" viewBox="0 0 120 120" fill="none" xmlns="http://www.w3.org/2000/svg">
<g clip-path="url(#clip0_84_29)">
<path fill-rule="evenodd" clip-rule="evenodd" d="M101.994 17.4388C96.4876 11.8913 89.9337 7.49305 82.7132 4.49944C75.4926 1.50582 67.7493 -0.0234993 59.9328 0.000272939C27.1653 0.000272939 0.497533 26.673 0.497533 59.4604C0.496899 69.8949 3.24235 80.1457 8.45806 89.1831L0 120L31.5237 111.726C40.2363 116.476 49.9997 118.968 59.9229 118.975C71.6865 118.978 83.1867 115.492 92.969 108.958C102.751 102.424 110.376 93.1361 114.88 82.2686C119.383 71.401 120.563 59.4421 118.269 47.9042C115.975 36.3663 110.312 25.7677 101.994 17.4488V17.4388ZM59.9527 108.96C51.094 108.956 42.3997 106.567 34.7825 102.044L32.9715 100.965L14.2643 105.865L19.2396 87.6308L18.0704 85.76C11.5871 75.4659 9.12683 63.1428 11.1604 51.1483C13.1939 39.1539 19.5785 28.3303 29.0925 20.7484C38.6066 13.1665 50.5821 9.35858 62.7278 10.0533C74.8736 10.748 86.3368 15.8965 94.9243 24.5137C101.841 31.4322 106.552 40.2461 108.46 49.8413C110.368 59.4365 109.388 69.382 105.645 78.4205C101.901 87.459 95.5615 95.1845 87.4277 100.62C79.2938 106.056 69.7308 108.959 59.9478 108.96H59.9527ZM87.0683 71.9137C85.5757 71.1624 78.2769 67.5802 76.9236 67.0827C75.5703 66.5851 74.5752 66.3314 73.5652 67.8339C72.5552 69.3365 69.7243 72.665 68.8586 73.665C67.9929 74.6651 67.1222 74.7944 65.6495 74.0431C64.1768 73.2919 59.3656 71.7246 53.7087 66.6597C50.4509 63.6548 47.6516 60.1882 45.3999 56.3708C44.5292 54.8782 45.3054 54.0771 46.0616 53.3507C46.8179 52.6243 47.5542 51.6193 48.2856 50.7486C48.9041 49.9983 49.4071 49.1598 49.7782 48.261C49.9756 47.8514 50.0681 47.3991 50.0473 46.9448C50.0264 46.4906 49.8929 46.0487 49.6588 45.6589C49.2558 44.9126 46.2706 37.5988 45.0765 34.6186C43.8824 31.6384 42.6436 32.131 41.7281 32.0613C40.8126 31.9916 39.8723 32.0165 38.8922 32.0165C38.1365 32.0342 37.3928 32.2083 36.7077 32.5277C36.0227 32.8471 35.4112 33.3049 34.9119 33.8723C33.5735 35.35 29.7276 38.9571 29.7276 46.2708C29.7276 53.5846 35.0462 60.6396 35.7925 61.6446C36.5388 62.6496 46.2706 77.6503 61.1966 84.0834C64.739 85.6058 67.5053 86.5213 69.6546 87.2278C72.6857 88.1419 75.8873 88.3411 79.0083 87.8099C81.8641 87.392 87.7947 84.2227 89.0435 80.7549C90.2923 77.2871 90.2873 74.2869 89.9142 73.6949C89.541 73.1028 88.5758 72.67 87.0782 71.9087L87.0683 71.9137Z" fill="#25D366"/>
</g>
<defs>
<clipPath id="clip0_84_29">
<rect width="119.408" height="120" fill="white"/>
</clipPath>
</defs>
</svg>
