<svg width="120" height="120" viewBox="0 0 120 120" fill="none" xmlns="http://www.w3.org/2000/svg">
<g clip-path="url(#clip0_84_36)">
<path fill-rule="evenodd" clip-rule="evenodd" d="M118.775 36.0075C118.775 36.0075 117.603 27.7361 113.998 24.1041C109.429 19.3272 104.314 19.2966 101.975 19.0194C85.1959 17.7969 59.9941 17.7969 59.9941 17.7969H59.9501C59.9501 17.7969 34.7598 17.7969 17.9712 19.0194C15.6233 19.3049 10.5149 19.3247 5.94828 24.1041C2.34036 27.7361 1.19375 36.0075 1.19375 36.0075C1.19375 36.0075 -0.000366211 45.7138 -0.000366211 55.4407V64.5361C-0.000366211 74.2424 1.19303 83.9685 1.19303 83.9685C1.19303 83.9685 2.36448 92.2399 5.94756 95.8781C10.5142 100.655 16.5157 100.5 19.1949 101.01C28.8015 101.926 60.0023 102.203 60.0023 102.203C60.0023 102.203 85.2258 102.158 102.005 100.958C104.353 100.681 109.46 100.653 114.028 95.8738C117.636 92.2417 118.805 83.9613 118.805 83.9613C118.805 83.9613 120 74.255 120 64.5289V55.4342C119.976 45.7279 118.782 36.0017 118.782 36.0017L118.775 36.0082L118.775 36.0075H118.775ZM47.5643 75.5705V41.8453L79.9809 58.7642L47.5643 75.5705Z" fill="#FF0000"/>
</g>
<defs>
<clipPath id="clip0_84_36">
<rect width="120" height="120" fill="white"/>
</clipPath>
</defs>
</svg>
